<?xml version="1.0" standalone="no"?>
<!DOCTYPE svg PUBLIC "-//W3C//DTD SVG 20010904//EN"
 "http://www.w3.org/TR/2001/REC-SVG-20010904/DTD/svg10.dtd">
<svg version="1.0" xmlns="http://www.w3.org/2000/svg"
 width="2000.000000pt" height="2000.000000pt" viewBox="0 0 2000.000000 2000.000000"
 preserveAspectRatio="xMidYMid meet">

<g transform="translate(0.000000,2000.000000) scale(0.100000,-0.100000)"
fill="#000000" stroke="none">
<path d="M0 10000 l0 -10000 10000 0 10000 0 0 10000 0 10000 -10000 0 -10000
0 0 -10000z m9242 4248 c28 -21 39 -41 56 -100 16 -53 35 -89 67 -128 25 -30
45 -63 45 -72 0 -33 -23 -67 -61 -93 -47 -30 -54 -75 -16 -99 21 -13 234 -76
260 -76 7 0 39 -14 71 -30 32 -17 65 -30 72 -30 8 0 32 17 55 37 38 34 44 37
102 35 73 -2 98 -17 144 -88 64 -97 47 -89 182 -92 l121 -4 72 40 c133 72 159
77 343 63 88 -6 205 -16 260 -21 636 -62 1053 -79 1255 -52 52 7 219 26 370
43 151 16 285 32 298 36 41 10 86 -7 197 -72 61 -36 169 -95 240 -131 72 -35
136 -72 143 -81 8 -11 12 -56 12 -132 0 -66 7 -147 16 -186 8 -38 32 -153 54
-255 37 -174 61 -283 126 -560 16 -69 44 -151 69 -205 53 -113 73 -161 131
-310 41 -109 46 -130 51 -231 7 -129 -10 -224 -56 -319 -46 -97 -94 -129 -290
-196 -46 -16 -93 -37 -104 -46 -11 -10 -47 -58 -81 -107 -33 -50 -73 -108 -88
-129 -50 -71 -36 -89 86 -114 99 -19 217 -62 244 -88 15 -14 30 -49 42 -98 20
-81 40 -122 96 -201 19 -28 34 -60 34 -77 0 -36 -25 -99 -67 -169 -42 -71 -42
-107 1 -220 32 -81 94 -281 111 -355 3 -16 10 -91 15 -166 8 -126 11 -141 39
-191 34 -60 127 -273 243 -558 93 -229 148 -383 148 -417 0 -39 -58 -268 -82
-326 -26 -62 -69 -128 -106 -162 -15 -14 -67 -46 -117 -72 -166 -86 -378 -317
-602 -658 -25 -38 -84 -128 -131 -200 -47 -71 -92 -146 -99 -165 -6 -19 -12
-67 -13 -107 0 -61 4 -76 24 -100 35 -42 44 -64 67 -158 18 -76 18 -89 6 -113
-8 -15 -32 -61 -54 -102 -106 -202 -168 -281 -232 -295 -62 -13 -186 61 -262
157 -22 29 -59 86 -82 127 -54 99 -99 146 -210 223 l-92 63 -90 6 c-77 6 -105
14 -184 49 l-92 42 -100 -22 c-55 -11 -135 -33 -177 -47 -113 -38 -149 -43
-233 -32 -74 9 -79 8 -170 -26 -68 -26 -105 -48 -140 -80 -52 -49 -105 -66
-144 -45 -13 7 -37 34 -54 60 -37 56 -98 114 -146 137 -33 16 -37 16 -88 -5
-29 -12 -64 -22 -79 -22 -29 0 -66 38 -110 113 -33 56 -76 80 -205 113 -51 13
-102 28 -112 34 -25 13 -78 79 -121 150 -52 87 -73 100 -230 145 -83 24 -140
47 -170 68 -40 29 -52 32 -115 32 -38 0 -93 -4 -122 -9 l-52 -8 -38 62 c-64
105 -162 234 -191 252 -21 14 -49 18 -124 18 -91 0 -100 2 -165 36 -37 20 -84
49 -103 64 -19 15 -84 60 -145 101 -108 74 -124 81 -305 133 -70 20 -101 52
-175 176 -64 109 -108 160 -137 160 -21 0 -21 -3 -15 -155 l7 -154 -61 -118
c-79 -151 -90 -163 -149 -163 -51 0 -69 14 -148 121 -22 31 -71 83 -107 115
-37 33 -79 79 -93 104 -25 42 -27 53 -27 166 l0 121 -58 66 c-53 60 -62 67
-115 77 -31 7 -68 14 -81 17 -13 3 -47 31 -75 61 -125 134 -114 127 -268 176
-79 24 -163 50 -187 56 -88 23 -252 147 -271 205 -6 18 -14 76 -19 128 -9 103
-19 129 -76 179 -45 39 -80 101 -99 175 -20 75 -20 122 -1 193 25 95 21 121
-31 182 -62 73 -80 111 -89 193 -4 39 -18 104 -31 145 -28 88 -30 127 -9 208
12 44 15 103 13 238 l-3 179 33 69 c39 83 40 115 6 147 -38 36 -62 80 -74 137
-15 67 -36 92 -130 153 -97 62 -114 86 -107 148 5 38 0 59 -29 122 -52 117
-53 130 -10 192 24 35 56 111 97 232 33 99 76 215 95 259 39 87 70 246 60 300
-4 19 -23 58 -42 86 -41 59 -104 187 -104 210 0 8 14 50 30 92 47 120 48 152
11 226 -40 80 -40 119 2 207 36 75 95 137 154 161 19 8 157 46 306 84 150 38
376 96 502 128 263 67 392 99 485 117 154 31 200 62 273 182 39 64 114 129
190 163 23 11 67 34 98 52 225 131 654 350 749 382 25 9 59 16 75 16 52 0 146
29 204 63 90 52 139 67 212 64 54 -2 73 -7 101 -29z"/>
<path d="M9075 14221 c-36 -9 -66 -25 -121 -62 -45 -30 -111 -51 -224 -70 -61
-10 -117 -33 -310 -127 -229 -112 -322 -161 -465 -248 -38 -23 -95 -54 -126
-68 -77 -36 -130 -85 -198 -186 -69 -102 -95 -118 -260 -156 -254 -58 -531
-127 -1036 -258 -99 -26 -199 -52 -223 -58 -59 -15 -121 -65 -159 -129 -50
-84 -51 -114 -8 -179 33 -50 36 -60 32 -110 -3 -30 -16 -89 -31 -131 -14 -41
-26 -88 -26 -104 0 -29 62 -145 107 -198 26 -33 29 -80 13 -233 -7 -67 -19
-113 -46 -175 -19 -46 -60 -158 -90 -249 -30 -91 -70 -190 -88 -220 -56 -92
-56 -85 19 -228 13 -25 16 -46 11 -81 -7 -56 -1 -63 111 -134 40 -26 79 -57
87 -70 12 -18 36 -107 36 -133 0 -2 23 -29 50 -59 45 -49 50 -60 50 -101 0
-31 -10 -64 -32 -106 -35 -67 -36 -82 -30 -333 2 -76 -2 -127 -12 -165 -22
-76 -20 -106 10 -181 14 -35 29 -102 35 -148 5 -47 15 -92 22 -100 6 -9 34
-42 61 -74 43 -51 49 -64 49 -101 -1 -23 -8 -66 -17 -96 -20 -67 -20 -113 -1
-199 15 -62 21 -73 76 -126 33 -32 66 -70 74 -84 7 -14 18 -75 25 -136 6 -60
17 -120 25 -131 18 -28 127 -110 186 -139 25 -13 76 -31 112 -39 36 -9 112
-31 169 -51 110 -38 100 -31 246 -181 20 -20 50 -38 75 -44 102 -25 121 -34
162 -71 23 -21 55 -57 70 -79 26 -38 27 -44 29 -174 l1 -135 115 -118 c63 -65
131 -141 150 -168 19 -27 42 -51 51 -53 11 -2 27 18 49 60 18 35 47 85 64 113
l31 50 0 166 c0 163 1 168 24 193 17 18 35 26 58 26 45 0 105 -65 186 -200 40
-68 73 -111 93 -122 16 -10 75 -29 130 -43 110 -29 159 -56 344 -190 151 -110
149 -109 294 -115 128 -5 129 -5 150 -34 12 -16 40 -52 63 -79 44 -52 72 -92
118 -166 l27 -43 103 7 c98 6 104 6 141 -18 77 -48 131 -71 224 -94 147 -36
176 -55 236 -152 75 -122 94 -137 202 -166 155 -42 230 -92 267 -183 9 -20 21
-39 27 -43 6 -4 34 4 62 17 56 26 81 29 120 14 41 -15 158 -119 189 -167 17
-26 34 -43 46 -43 11 0 39 19 63 43 25 24 65 50 93 61 28 10 72 27 100 38 42
17 64 20 150 15 95 -4 106 -3 225 35 69 21 160 44 203 50 85 13 115 8 262 -46
46 -17 91 -26 130 -26 52 0 70 -6 126 -38 143 -84 225 -165 294 -291 51 -93
143 -195 208 -227 43 -22 53 -24 79 -13 45 18 87 75 162 219 64 123 68 135 63
178 -10 75 -25 117 -62 171 -32 46 -35 57 -35 124 0 106 18 161 86 262 33 50
113 169 177 265 147 221 231 327 365 464 124 125 204 188 275 213 56 20 115
79 152 153 37 73 95 282 95 340 0 52 -258 697 -366 915 l-58 115 -7 143 c-8
154 -31 250 -119 495 -22 62 -40 130 -40 151 0 26 16 68 50 134 28 53 50 106
50 117 0 11 -16 41 -35 66 -39 50 -51 76 -97 202 -37 102 -37 102 -228 143
-111 24 -136 38 -156 86 -22 51 -12 78 69 191 40 56 84 119 99 141 28 41 68
66 148 94 195 68 230 88 259 145 44 87 65 229 51 350 -12 108 -47 212 -139
416 -53 116 -80 192 -102 285 -17 69 -45 189 -64 266 -18 77 -43 190 -55 250
-12 61 -33 164 -48 230 -18 83 -27 158 -30 243 l-3 124 -37 14 c-20 8 -50 22
-67 31 -16 9 -66 36 -110 61 -291 163 -287 161 -368 142 -44 -10 -227 -30
-507 -55 -91 -8 -201 -20 -244 -26 -44 -6 -129 -8 -190 -4 -287 15 -469 27
-676 45 -640 55 -635 54 -695 41 -31 -7 -95 -33 -143 -57 l-87 -44 -126 0
c-148 0 -152 2 -218 104 -64 98 -117 109 -194 40 -20 -19 -45 -34 -54 -34 -10
0 -53 15 -98 34 -44 19 -114 42 -155 50 -41 9 -106 26 -145 38 -60 20 -72 28
-87 58 -29 60 -24 90 27 140 25 24 45 50 45 58 0 8 -15 31 -33 52 -41 48 -51
69 -72 142 -22 80 -77 110 -160 89z"/>
</g>
</svg>
