<svg xmlns="http://www.w3.org/2000/svg" viewBox="0 0 1200 630"><rect width="1200" height="630" fill="#050505"/><g opacity=".12" stroke="#fff"><path d="M0 90h1200M0 180h1200M0 270h1200M0 360h1200M0 450h1200M0 540h1200"/><path d="M90 0v630M180 0v630M270 0v630M360 0v630M450 0v630M540 0v630M630 0v630M720 0v630M810 0v630M900 0v630M990 0v630M1080 0v630"/></g><text x="72" y="120" fill="#00ff00" font-family="monospace" font-size="22" font-weight="700" letter-spacing="6">NUSH / SYSTEMY WZROSTU</text><text x="72" y="290" fill="#fff" font-family="Arial, sans-serif" font-size="105" font-weight="900">SPRZEDAŻ</text><text x="72" y="405" fill="#00ff00" font-family="Arial, sans-serif" font-size="105" font-weight="900">KTÓRA DZIAŁA</text><path d="M72 475h1056" stroke="#00ff00" stroke-width="2"/><text x="72" y="535" fill="#fff" font-family="monospace" font-size="20" letter-spacing="4">E-COMMERCE · DANE · AUTOMATYZACJA</text></svg>
